<svg width="79" height="79" viewBox="0 0 79 79" fill="none" xmlns="http://www.w3.org/2000/svg">
<path d="M0 39.5C0 17.6848 17.6848 0 39.5 0C61.3152 0 79 17.6848 79 39.5C79 61.3152 61.3152 79 39.5 79C17.6848 79 0 61.3152 0 39.5Z" fill="#6666FF"/>
<path d="M39.5816 60.5675C42.7759 60.5675 45.5175 59.9382 47.8315 58.6292C50.1204 57.3202 51.8559 55.4826 53.0129 53.1163C54.1699 50.7501 54.7736 47.9811 54.7736 44.7841V23.4375H46.1212V44.2303C46.1212 46.7979 45.4924 48.8118 44.2851 50.2718C43.0778 51.757 41.4932 52.487 39.5816 52.487C38.5252 52.487 37.5946 52.2856 36.7897 51.8325C35.9597 51.4046 35.2806 50.8004 34.7775 50.0452C34.2493 49.29 33.8469 48.4342 33.5702 47.4273C33.2935 46.4455 33.1678 45.3883 33.1678 44.2303V23.4375H24.4902V44.7841C24.4902 47.3014 24.8424 49.5418 25.5718 51.5304C26.276 53.5443 27.3073 55.2057 28.6404 56.5147C29.9483 57.8237 31.5329 58.8306 33.3941 59.5354C35.2554 60.2403 37.3179 60.5675 39.5816 60.5675Z" fill="white"/>
</svg>
